<svg viewBox="0 0 35 9" xmlns="http://www.w3.org/2000/svg"><g transform="translate(.62)" fill="none" fill-rule="evenodd"><path d="M32.127.185A.22.22 0 0 1 32.344 0h1.213c.135 0 .237.12.216.253L32.71 6.989a.365.365 0 0 1-.36.309h-1.085a.219.219 0 0 1-.216-.253l1.078-6.86zM30.643 2.43a.22.22 0 0 1 .217.253l-.68 4.307a.365.365 0 0 1-.361.308h-1.133a.219.219 0 0 1-.216-.254l.056-.35s-.621.72-1.742.72c-.652 0-1.2-.188-1.584-.64-.418-.49-.59-1.195-.468-1.932.23-1.477 1.418-2.53 2.808-2.53.606 0 1.213.132 1.486.527l.088.128.055-.352a.22.22 0 0 1 .216-.185h1.258zM28.89 4.88c.055-.349-.021-.664-.213-.89-.192-.225-.482-.343-.84-.343-.716 0-1.296.498-1.41 1.21-.058.35.012.664.198.884.188.222.48.34.845.34.728 0 1.298-.483 1.42-1.202zM22.79 0c.88 0 1.542.232 1.916.671.34.4.452.97.335 1.696-.261 1.66-1.26 2.497-2.99 2.497h-.832a.365.365 0 0 0-.36.308l-.301 1.91a.256.256 0 0 1-.253.216h-1.348a.219.219 0 0 1-.216-.253L19.803.308a.365.365 0 0 1 .36-.308h2.628m.302 2.46c.053-.33.01-.57-.127-.732-.231-.27-.68-.27-1.153-.27h-.182c-.108 0-.2.078-.216.184l-.278 1.761h.396c.697 0 1.417 0 1.56-.943z" fill="#0079C1"/><path d="M18.605 2.43c.176 0 .28.199.179.344l-4.204 6.07a.367.367 0 0 1-.3.156h-1.264a.219.219 0 0 1-.178-.345l1.309-1.848-1.392-4.087a.22.22 0 0 1 .207-.29h1.243c.16 0 .303.106.35.26l.739 2.47 1.744-2.57c.068-.1.18-.16.302-.16h1.265m-6.7 0c.135 0 .237.12.216.253l-.68 4.307a.365.365 0 0 1-.36.308H9.948a.22.22 0 0 1-.217-.254l.057-.35s-.621.72-1.742.72c-.653 0-1.2-.188-1.584-.64-.418-.49-.59-1.195-.47-1.932.232-1.477 1.42-2.53 2.809-2.53.607 0 1.214.132 1.487.527l.087.128.056-.352a.218.218 0 0 1 .216-.185h1.258zm-1.753 2.45c.055-.349-.021-.664-.214-.89-.191-.225-.481-.343-.838-.343-.717 0-1.297.498-1.41 1.21-.06.35.01.664.197.884.188.222.48.34.845.34.728 0 1.298-.483 1.42-1.202zM4.052 0c.88 0 1.542.232 1.916.671.339.4.452.97.335 1.696-.261 1.66-1.26 2.497-2.991 2.497H2.48a.365.365 0 0 0-.36.308L1.834 6.99a.365.365 0 0 1-.361.308H.219a.218.218 0 0 1-.216-.253L1.065.308A.365.365 0 0 1 1.425 0h2.628zm.304 2.46c.052-.33.01-.57-.127-.732-.231-.27-.68-.27-1.153-.27h-.182c-.108 0-.2.078-.216.184l-.28 1.761h.398c.696 0 1.417 0 1.56-.943z" fill="#00457C"/></g></svg>
