<svg viewBox="0 0 30 12" xmlns="http://www.w3.org/2000/svg"><g transform="translate(.403)" fill="none" fill-rule="evenodd"><path d="M13.624 5.865v3.522h-1.1V.694h2.918a2.594 2.594 0 0 1 1.886.755A2.535 2.535 0 0 1 17.451 5l-.123.124c-.513.493-1.141.742-1.886.742h-1.818zm0-4.104v3.037h1.845a1.43 1.43 0 0 0 1.087-.451 1.546 1.546 0 0 0-.034-2.156 1.493 1.493 0 0 0-1.053-.43h-1.845zm7.032 1.483c.813 0 1.456.222 1.927.659.472.436.704 1.046.704 1.816v3.667h-1.052V8.56h-.048c-.458.68-1.059 1.019-1.818 1.019-.642 0-1.189-.194-1.619-.582a1.852 1.852 0 0 1-.65-1.456c0-.617.233-1.102.691-1.47.457-.367 1.072-.547 1.838-.547.656 0 1.189.125 1.613.36V5.63c0-.381-.164-.742-.451-.991a1.588 1.588 0 0 0-1.06-.41c-.615 0-1.1.264-1.455.79l-.971-.616c.52-.77 1.306-1.158 2.351-1.158zm-1.421 4.319c0 .29.136.561.362.728.246.194.547.298.854.29.465 0 .909-.186 1.237-.52.362-.346.547-.755.547-1.226-.342-.277-.82-.416-1.435-.41-.444 0-.82.112-1.121.327-.294.215-.444.485-.444.81z" fill="#3C4043" fill-rule="nonzero"/><path fill="#3C4043" d="M29.328 3.43896152L25.651 12.0000015 24.517 12.0000015 25.883 9.00540152 23.471 3.43896152 24.667 3.43896152 26.41 7.70910152 26.43 7.70910152 28.132 3.43896152z"/><path d="M9.644 5.102c0-.34-.027-.679-.082-1.012h-4.64v1.92H7.58a2.314 2.314 0 0 1-.984 1.519v1.247h1.586c.929-.866 1.462-2.149 1.462-3.674z" fill="#4285F4"/><path d="M4.922 9.983c1.325 0 2.446-.444 3.259-1.206L6.596 7.529c-.444.305-1.012.478-1.674.478-1.285 0-2.372-.88-2.761-2.059H.527v1.29a4.91 4.91 0 0 0 4.395 2.745z" fill="#34A853"/><path d="M2.161 5.948a3.053 3.053 0 0 1 0-1.913V2.752H.528a5.011 5.011 0 0 0 0 4.479l1.633-1.283z" fill="#FBBC04"/><path d="M4.922 1.976a2.63 2.63 0 0 1 1.886.749l1.407-1.428A4.71 4.71 0 0 0 4.922 0 4.916 4.916 0 0 0 .527 2.752l1.634 1.29c.389-1.186 1.476-2.066 2.761-2.066z" fill="#EA4335"/></g></svg>
